HIERARCHY
ROOT Hips
{
  OFFSET 1.44925e-005 102.336 -0.101585
  CHANNELS 6 Xposition Yposition Zposition Zrotation Xrotation Yrotation
  JOINT LeftUpLeg
  {
    OFFSET 8.9458 -8.66707 0.101652
    CHANNELS 3 Zrotation Xrotation Yrotation
    JOINT LeftLeg
    {
      OFFSET 0 -44.4227 1.3727
      CHANNELS 3 Zrotation Xrotation Yrotation
      JOINT LeftFoot
      {
        OFFSET -0.253549 -42.0924 -1.46059
        CHANNELS 3 Zrotation Xrotation Yrotation
        JOINT LeftToes
        {
          OFFSET -0.04 -4.41509 8.4991
          CHANNELS 3 Zrotation Xrotation Yrotation
          End Site
          {
            OFFSET 0.08 -0.047448 9.77979
          }
        }
      }
    }
  }
  JOINT Spine
  {
    OFFSET 0 11.8905 0
    CHANNELS 3 Zrotation Xrotation Yrotation
    JOINT Spine1
    {
      OFFSET 0 25.6574 0.127663
      CHANNELS 3 Zrotation Xrotation Yrotation
      JOINT RightShoulder
      {
        OFFSET -8.99 -0.362252 -0.22
        CHANNELS 3 Zrotation Xrotation Yrotation
        JOINT RightArm
        {
          OFFSET -10.2827 -0.00338 0.322123
          CHANNELS 3 Zrotation Xrotation Yrotation
          JOINT RightForeArm
          {
            OFFSET -26.364 0.099144 -1.42434
            CHANNELS 3 Zrotation Xrotation Yrotation
            JOINT RightHand
            {
              OFFSET -22.0324 0.085362 1.02216
              CHANNELS 3 Zrotation Xrotation Yrotation
              End Site
              {
                OFFSET -13.3284 -0.6 1.50291
              }
            }
          }
        }
      }
      JOINT LeftShoulder1
      {
        OFFSET 8.99 -0.362252 -0.22
        CHANNELS 3 Zrotation Xrotation Yrotation
        JOINT LeftArm
        {
          OFFSET 10.2827 -0.00337999 0.322123
          CHANNELS 3 Zrotation Xrotation Yrotation
          JOINT LeftForeArm
          {
            OFFSET 26.2597 0.099144 -1.42434
            CHANNELS 3 Zrotation Xrotation Yrotation
            JOINT LeftHand
            {
              OFFSET 22.0902 0.085362 1.02216
              CHANNELS 3 Zrotation Xrotation Yrotation
              End Site
              {
                OFFSET 13.419 -0.6 1.50291
              }
            }
          }
        }
      }
      JOINT Head
      {
        OFFSET 0 8.73416 0.011341
        CHANNELS 3 Zrotation Xrotation Yrotation
        End Site
        {
          OFFSET -0.29 12.7742 2.51395
        }
      }
    }
  }
  JOINT RightUpLeg
  {
    OFFSET -8.9458 -8.66707 0.101652
    CHANNELS 3 Zrotation Xrotation Yrotation
    JOINT RightLeg
    {
      OFFSET 0 -44.4227 1.3727
      CHANNELS 3 Zrotation Xrotation Yrotation
      JOINT RightFoot
      {
        OFFSET 0.253549 -42.0924 -1.46059
        CHANNELS 3 Zrotation Xrotation Yrotation
        JOINT RightToes
        {
          OFFSET 0.04 -4.41509 8.4991
          CHANNELS 3 Zrotation Xrotation Yrotation
          End Site
          {
            OFFSET -0.08 -0.137448 9.77979
          }
        }
      }
    }
  }
}
MOTION
Frames:	14
Frame Time:	0.0333333
193.05 102.924 6.04551 -4.70599 -1.49122 -89.5135 -3.26565 1.17814 1.1844 -0.687485 8.12754 23.4473 -1.19173 -9.90747 0.0212132 -1.35388e-009 8.75222e-006 -1.4718e-008 2.80274 11.5324 -0.27241 -3.41089 -3.04081 0.50417 36.0748 1.72942 0.0573437 42.8481 -19.6791 10.2494 7.41343 41.9499 8.17251 -10.1942 9.2301 2.84931 -44.4151 3.5667 -3.46381 -27.3228 -8.57813 2.15341 -2.18995 31.0945 -18.4341 5.82328 9.61819 -0.917488 0.712412 -3.90055 -4.77183 -1.71294 0.897175 -4.5856 -0.0315275 13.6388 -11.4376 3.45392 -14.5128 -0.00495157 0.0462048 0.000530889 0.662642 
193.061 102.924 6.05969 -4.70229 -1.5206 -89.5326 -3.29253 1.20695 1.18428 -0.720113 8.04742 23.4756 -1.19111 -9.88748 0.0212119 -1.35388e-009 8.75222e-006 -1.4718e-008 2.654 11.5428 -0.254498 -3.26835 -3.08774 0.489303 36.0613 1.72942 0.067636 42.8471 -19.7747 10.2744 7.72404 41.0063 7.90079 -10.0338 9.35039 1.46143 -44.4628 3.5667 -3.46419 -27.268 -8.89363 2.10392 -2.39406 31.231 -18.1593 5.82328 9.61819 -0.917488 0.535343 -4.00623 -4.80141 -1.7655 0.860797 -4.62504 -0.0400241 13.6915 -11.3609 3.5081 -14.5367 -0.0049521 0.0462048 0.000530889 0.662642 
193.092 102.924 6.08331 -4.6836 -1.54156 -89.5349 -3.29817 1.20273 1.21112 -0.784988 7.97577 23.4625 -1.17001 -9.86377 0.0212104 -1.35388e-009 8.75222e-006 -1.4718e-008 2.51291 11.5804 -0.235836 -3.13706 -3.20391 0.476041 36.0887 1.72933 0.083713 42.7697 -19.8244 10.2501 7.97118 40.1439 7.70257 -9.94292 9.44947 0.246501 -44.5267 3.56634 -3.46231 -27.1589 -9.13125 2.10134 -2.56085 31.3241 -17.9408 5.82328 9.61819 -0.917488 0.0657124 -4.48057 -4.89971 -1.81428 0.797531 -4.65876 -0.0433724 13.7459 -11.3039 3.55856 -14.5575 -0.00495257 0.0462048 0.000530889 0.662642 
193.124 102.924 6.10165 -4.7351 -1.49158 -89.4942 -3.22343 1.22106 1.29949 -0.835013 8.01253 23.3431 -1.12935 -9.88061 0.0212115 -1.35388e-009 8.75222e-006 -1.4718e-008 2.51145 11.6087 -0.229762 -3.10811 -3.17552 0.477676 36.1795 1.72939 0.0857175 42.6251 -19.7342 10.2373 7.95663 39.9885 7.76481 -9.88907 9.45825 0.168668 -44.5749 3.56311 -3.44783 -27.0263 -9.10632 2.0561 -2.5909 31.3339 -17.9065 5.82328 9.61819 -0.917488 -0.489909 -5.0922 -5.0833 -1.76032 0.877694 -4.62156 -0.0398051 13.6639 -11.3836 3.53347 -14.5146 -0.00495161 0.0462048 0.000530889 0.662642 
193.141 102.923 6.11709 -4.8803 -1.40774 -89.4564 -3.12518 1.31919 1.40803 -0.848183 8.1124 23.2058 -1.10959 -9.93314 0.0212149 -1.35388e-009 8.75222e-006 -1.4718e-008 2.53919 11.6248 -0.238426 -3.09069 -2.964 0.47141 36.2927 1.72952 0.0711486 42.5076 -19.6224 10.3497 7.92112 40.039 7.82746 -9.81478 9.44507 0.387761 -44.607 3.55526 -3.42778 -26.9016 -8.91394 1.96367 -2.58239 31.2362 -17.9499 5.82328 9.61819 -0.917488 -0.470721 -5.11993 -5.09704 -1.65397 1.10493 -4.54988 -0.0486329 13.5039 -11.4997 3.52418 -14.4464 -0.0038849 0.0462048 0.000530889 0.662642 
193.156 102.918 6.14195 -5.00392 -1.37843 -89.4687 -3.10525 1.40995 1.45651 -0.847638 8.18509 23.1794 -1.12463 -9.97807 0.0212178 -1.35388e-009 8.75222e-006 -1.4718e-008 2.48324 11.6707 -0.253875 -3.03702 -2.82375 0.445491 36.3323 1.72895 0.0591949 42.4991 -19.5757 10.5179 8.01657 39.939 7.72782 -9.83023 9.45095 0.301347 -44.6592 3.55299 -3.4156 -26.7754 -8.64222 1.97376 -2.56788 31.0176 -18.0347 5.82328 9.61819 -0.917488 0.362043 -4.35818 -4.71737 -1.62395 1.2434 -4.52113 -0.0776165 13.4812 -11.4923 3.62824 -14.46 0.00217539 0.0462048 0.000530889 0.662642 
193.182 102.909 6.17273 -5.026 -1.41577 -89.4958 -3.16311 1.40192 1.43888 -0.85853 8.2219 23.2244 -1.12491 -9.99454 0.0212189 -1.35388e-009 8.75222e-006 -1.4718e-008 2.36672 11.7572 -0.260874 -2.96189 -2.89398 0.415842 36.1968 1.72689 0.0639101 42.6309 -19.5198 10.5724 8.10645 39.7782 7.64315 -9.97082 9.45718 0.13098 -44.8045 3.56303 -3.41356 -26.5917 -8.38374 2.10556 -2.52518 30.7831 -18.1551 5.82328 9.61819 -0.917488 1.3431 -3.44319 -4.1195 -1.68854 1.18192 -4.54918 -0.105311 13.6337 -11.4025 3.73301 -14.5654 0.011185 0.0462048 0.000530889 0.662642 
193.212 102.901 6.19159 -5.02655 -1.46222 -89.449 -3.21635 1.36386 1.41725 -0.871583 8.2634 23.189 -1.08049 -9.99628 0.021219 -1.35388e-009 8.75222e-006 -1.4718e-008 2.22326 11.8548 -0.259522 -2.8149 -2.99418 0.379972 35.8788 1.72142 0.0790508 42.907 -19.4509 10.5186 8.0621 39.7317 7.71349 -10.0783 9.45612 0.0790399 -45.0664 3.585 -3.41731 -26.346 -8.24358 2.18429 -2.49775 30.6481 -18.2287 5.82328 9.61819 -0.917488 1.79636 -2.97119 -3.62055 -1.75593 1.10203 -4.59705 -0.104189 13.7809 -11.4 3.70105 -14.6598 0.0131115 0.0462048 0.000530889 0.662642 
193.234 102.892 6.19538 -5.09519 -1.48759 -89.3142 -3.23495 1.39803 1.41585 -0.868883 8.31038 23.0524 -1.04664 -9.99856 0.0212191 -1.35388e-009 8.75222e-006 -1.4718e-008 2.05004 11.9477 -0.270083 -2.57557 -2.96084 0.318651 35.5201 1.71286 0.0901021 43.2667 -19.511 10.508 7.95696 39.8742 7.8011 -10.0065 9.46429 0.0175846 -45.3263 3.61085 -3.42865 -26.1543 -8.23619 2.11082 -2.55091 30.6209 -18.1801 5.82328 9.61819 -0.917488 1.77233 -2.90142 -3.37289 -1.77726 1.14637 -4.63636 -0.0919386 13.8479 -11.5209 3.65303 -14.7007 0.0169547 0.0462048 0.000530889 0.662642 
193.247 102.885 6.19834 -5.17823 -1.50595 -89.1745 -3.24832 1.45844 1.41033 -0.863119 8.34295 22.9318 -1.07299 -10.006 0.0212196 -1.35388e-009 8.75222e-006 -1.4718e-008 1.921 12.0345 -0.295509 -2.40886 -2.89721 0.259182 35.3049 1.70467 0.0894452 43.5454 -19.6629 10.5427 7.89753 40.0918 7.80194 -9.80737 9.47976 -0.0627396 -45.4 3.62638 -3.44753 -26.1468 -8.31138 1.97817 -2.65748 30.6881 -18.0443 5.82328 9.61819 -0.917488 1.57826 -2.98357 -3.42727 -1.77932 1.21173 -4.65357 -0.103958 13.9189 -11.657 3.72554 -14.7412 0.0199351 0.0462048 0.000530889 0.662642 
193.25 102.882 6.20668 -5.19231 -1.51936 -89.0984 -3.25962 1.46006 1.41095 -0.866699 8.36188 22.8692 -1.11117 -10.0161 0.0212203 -1.35388e-009 8.75222e-006 -1.4718e-008 1.91759 12.1183 -0.299571 -2.45157 -2.96062 0.26166 35.267 1.69893 0.0789438 43.6072 -19.6355 10.4617 7.88444 40.0668 7.83251 -9.68406 9.48796 -0.0962639 -45.2692 3.624 -3.46232 -26.2961 -8.44722 1.89927 -2.73029 30.8465 -17.9177 5.82328 9.61819 -0.917488 1.17289 -3.23556 -3.79813 -1.78721 1.21293 -4.65926 -0.114314 13.967 -11.7241 3.7527 -14.7793 0.0180693 0.0462048 0.000530889 0.662642 
193.238 102.884 6.21594 -5.16447 -1.52614 -89.0705 -3.26269 1.43417 1.41932 -0.881951 8.36975 22.8134 -1.10371 -10.0232 0.0212207 -1.35388e-009 8.75222e-006 -1.4718e-008 1.94597 12.2234 -0.255929 -2.54808 -3.13743 0.32021 35.2941 1.69581 0.0689976 43.5038 -19.4044 10.2595 7.9052 39.765 7.91261 -9.81456 9.48931 -0.191712 -45.1396 3.61677 -3.46766 -26.4279 -8.57598 1.90023 -2.72835 30.9892 -17.8761 5.82328 9.61819 -0.917488 0.564819 -3.6671 -4.24991 -1.81464 1.22309 -4.69423 -0.0758643 13.9093 -11.706 3.61739 -14.7799 0.00967018 0.0462048 0.000530889 0.662642 
193.221 102.878 6.22802 -5.14769 -1.55571 -89.0463 -3.29735 1.41818 1.40368 -0.889321 8.38902 22.779 -1.09474 -10.0475 0.0212223 -1.35388e-009 8.75222e-006 -1.4718e-008 1.86911 12.345 -0.200893 -2.51213 -3.31124 0.361638 35.3499 1.69959 0.0732068 43.3599 -19.3077 10.1435 7.98271 39.6773 7.84835 -10.12 9.4862 -0.328268 -45.1691 3.62157 -3.4725 -26.4232 -8.53788 1.96181 -2.68374 30.9566 -17.9348 5.82328 9.61819 -0.917488 0.286471 -3.98618 -4.33208 -1.87435 1.22293 -4.75107 -0.0476642 13.9322 -11.6562 3.73555 -14.9118 0.020658 0.0462048 0.000530889 0.662642 
193.208 102.854 6.24229 -5.13226 -1.62618 -89.0012 -3.38312 1.35074 1.34808 -0.887227 8.51625 22.7919 -1.15365 -10.1558 0.0204261 -1.35388e-009 8.75222e-006 -1.4718e-008 1.75353 12.4159 -0.193735 -2.47302 -3.39571 0.352213 35.5233 1.71294 0.090009 43.1731 -19.4092 10.1884 8.0878 39.9363 7.65132 -10.2217 9.47692 -0.266348 -45.2601 3.63093 -3.47697 -26.3301 -8.29819 2.03599 -2.65617 30.7635 -18.0283 5.82328 9.61819 -0.917488 0.689892 -3.97513 -4.01204 -1.93412 1.07765 -4.72897 -0.156016 14.3311 -11.7543 4.64752 -15.5237 0.101911 0.0462048 0.000530889 0.662642 
